<svg viewBox="0 0 400 300" xmlns="http://www.w3.org/2000/svg">
  <!-- Left profile (masculine) -->
  <path d="M 80 250 Q 70 200 75 150 Q 80 100 110 80 Q 140 60 160 70 Q 170 75 165 90 Q 155 85 150 95 Q 145 120 140 150 Q 135 180 145 210 Q 155 240 160 260 Z" fill="#9B6FD4" opacity="0.95"/>
  
  <!-- Right profile (feminine) -->
  <path d="M 320 250 Q 330 200 325 150 Q 320 100 290 80 Q 260 60 240 70 Q 230 75 235 90 Q 245 85 250 95 Q 255 120 260 150 Q 265 180 255 210 Q 245 240 240 260 Z" fill="#B896D9" opacity="0.9"/>
  
  <!-- Left hair detail -->
  <path d="M 110 80 Q 100 90 105 110 Q 95 95 90 80 Q 95 70 110 80" fill="#9B6FD4"/>
  
  <!-- Right hair detail -->
  <path d="M 290 80 Q 300 90 295 110 Q 305 95 310 80 Q 305 70 290 80" fill="#B896D9"/>
  
  <!-- Left chin -->
  <ellipse cx="140" cy="240" rx="12" ry="18" fill="#9B6FD4"/>
  
  <!-- Right chin -->
  <ellipse cx="260" cy="240" rx="12" ry="18" fill="#B896D9"/>
  
  <!-- Text below -->
  <text x="200" y="295" font-family="'Cormorant Garamond', serif" font-size="48" font-weight="300" text-anchor="middle" fill="#1A1020">ALYX</text>
</svg>